# xmcd CD database file
#
# Track frame offsets:
#	150
#	15630
#	31275
#	44675
#	59937
#	71707
#	86952
#	98802
#	110095
#	123725
#	136750
#	149052
#	162930
#	176957
#	191072
#	204882
#	216745
#	229495
#	242050
#	254940
#	266960
#	279207
#	293650
#
# Disc length: 4085 seconds
#
# Revision: 3
# Processed by: cddbd v1.5.2PL0 Copyright (c) Steve Scherf et al.
# Submitted via: CDex 1.70beta2
#
DISCID=880ff317
DTITLE=Various Artist - When I Was A Cowboy Vol 2
DYEAR=1996
DGENRE=Country
TTITLE0=Jimmie Davis - Cowboy's Home Sweet Home
TTITLE1=Harry McClintock - Jesse James
TTITLE2=Cartwright Brothers - Get Along Little Dogies
TTITLE3=Jack Webb - The Night Guard
TTITLE4=Gerald and Dixon - Back to My Wyoming Home
TTITLE5=Carl Sprague - The Cowboy
TTITLE6=Jules Allen - The Gal I Left Behind
TTITLE7=Paul Hamblin - The Strawberry Roan
TTITLE8=Rowdy Wright - I'm a Wandering Bronco Rider
TTITLE9=Cartwright Brothers - The Dying Ranger
TTITLE10=Delmore Brothers - The Fugitive's Lament
TTITLE11=Crockett Family - Buffalo Gals Medley
TTITLE12=Billie Maxwell - Billy Venero-Part 1
TTITLE13=Billie Maxwell - Billy Venero-Part 2
TTITLE14=J. D. Farley - I'm a Lone Star Cowboy
TTITLE15=Buell Kazee - The Cowboy Trail
TTITLE16=Powder River Jack and Kitty Lee - My Love Is a Cowboy
TTITLE17=Patt Patterson and Lois Dexter - Snow Covered Face
TTITLE18=Frank Jenkins and His Pilot Mountaineers - The Burial of Wild Bill
TTITLE19=Dick DeVall - Tom Sherman's Barroom
TTITLE20=Rowdy Wright - I'm a Jolly Cowboy
TTITLE21=Ken Maynard - Home on the Range
TTITLE22=McGinty's Oklahoma Cowboy Band - Cowboy's Dream
EXTD=Early American Songs of the West\n\nClassic Recordings from the 1920's and 30's YEAR: 1996
EXTT0=
EXTT1=
EXTT2=
EXTT3=
EXTT4=
EXTT5=
EXTT6=
EXTT7=
EXTT8=
EXTT9=
EXTT10=
EXTT11=
EXTT12=
EXTT13=
EXTT14=
EXTT15=
EXTT16=
EXTT17=
EXTT18=
EXTT19=
EXTT20=
EXTT21=
EXTT22=
PLAYORDER=
